<?xml version="1.0" encoding="utf-8"?>
<!-- Generator: Adobe Illustrator 21.1.0, SVG Export Plug-In . SVG Version: 6.00 Build 0)  -->
<svg version="1.1" id="Layer_1" xmlns="http://www.w3.org/2000/svg" xmlns:xlink="http://www.w3.org/1999/xlink" x="0px" y="0px"
	 viewBox="0 0 865 248" style="enable-background:new 0 0 865 248;" xml:space="preserve">
<style type="text/css">
	.st0{fill:#FFFFFF;}
	.st1{fill:none;}
	.st2{font-family:'CrimsonText-Regular';}
	.st3{font-size:65px;}
</style>
<rect x="317" y="0" class="st0" width="500" height="248"/>
<g>
	<path d="M296.2,164.9c-4.3-1.5-8.8-4-13.4-7.6c-4.6-3.6-9.1-8.1-13.6-13.5c-4.5-5.5-8.1-12.3-11-20.4c-2.8-8.1-4.3-16.7-4.3-25.8
		c0-19.2,5.6-35.5,16.9-49.2C282.2,34.8,295.8,28,311.8,28c1.8,0,3.5,0.1,5.2,0.3V0H0v248h317v-71.8c-0.7-0.4-1.4-0.9-2.1-1.3
		C307.4,170,301.1,166.7,296.2,164.9z M134,152.4c-0.4,1.2-0.8,2.2-1,2.9c-0.3,0.7-0.5,1.6-0.8,2.6c-0.3,1-0.5,1.8-0.6,2.4
		c-2.2,0-5.6-0.1-10.3-0.2c-4.7-0.1-8.5-0.2-11.3-0.2l-7.7,0.2c-0.1-0.1-0.2-0.5-0.2-1c0-0.5,0.1-0.8,0.2-0.8c0.6,0,1.4-0.1,2.5-0.4
		c1.1-0.3,1.7-0.6,1.9-1c0.3-0.5,0.4-2.5,0.4-6v-24c0-2.7-0.1-4.6-0.4-5.8c-0.1-0.3-0.7-0.6-1.8-0.9c-1.1-0.3-1.9-0.4-2.4-0.4
		c-0.2,0-0.3-0.3-0.3-0.8c0-0.5,0.1-0.8,0.3-1c0.5,0,1.7,0.1,3.4,0.2c1.7,0.1,3.1,0.2,4.3,0.2c0.8,0,1.7,0,2.5-0.1
		c0.8,0,1.7-0.1,2.6-0.2c0.9-0.1,1.7-0.1,2.3-0.2c0.1,0.3,0.1,0.6,0.1,1c0,0.6-0.1,0.9-0.3,0.9c-0.4,0-1.2,0.1-2.3,0.4
		c-1.1,0.3-1.7,0.6-1.8,0.9c-0.4,1.5-0.6,3.4-0.6,5.9V151c0,2.2,0.2,4.1,0.6,5.6c0.1,0.4,1.6,0.6,4.3,0.6h3c3.9,0,6.6-0.4,8-1.1
		c0.6-0.3,1.3-1.1,2.1-2.3c0.8-1.2,1.4-2.5,1.9-4.2c0.1-0.3,0.4-0.4,0.9-0.4c0.8,0,1.3,0.1,1.6,0.4
		C134.8,150.3,134.4,151.2,134,152.4z M173.2,154.4c-4,4.2-8.8,6.3-14.3,6.3s-10.4-2.1-14.3-6.3c-4-4.2-5.9-9.2-5.9-15.2
		c0-5.9,2-11,5.9-15.2c4-4.2,8.7-6.3,14.3-6.3s10.4,2.1,14.3,6.3c4,4.2,6,9.3,6,15.2C179.2,145.2,177.2,150.2,173.2,154.4z
		 M226.1,119.7c-0.4,0-1.3,0.2-2.8,0.5c-1.4,0.3-2.2,0.7-2.3,1c-0.3,1.3-0.5,3.3-0.5,5.9v15.4c0,6.6-1.4,11.1-4.1,13.7
		c-2.8,2.6-6.7,3.8-11.7,3.8c-5,0-8.9-1.5-11.6-4.4c-2.7-3-4.1-7.7-4.1-14.3v-14.4c0-2.6-0.1-4.5-0.4-5.6c-0.1-0.3-0.7-0.6-1.8-0.9
		c-1.1-0.3-1.9-0.4-2.4-0.4c-0.2,0-0.3-0.3-0.3-0.8c0-0.5,0.1-0.8,0.3-1c4.9,0.2,7.4,0.3,7.6,0.3c0.7,0,3.1-0.1,7.4-0.3
		c0.1,0.3,0.1,0.6,0.1,0.9c0,0.6-0.1,1-0.3,1c-0.4,0-1.2,0.1-2.3,0.4c-1.1,0.3-1.7,0.6-1.8,0.9c-0.4,1.5-0.6,3.4-0.6,5.9v14.2
		c0,4.8,1,8.6,3,11.4c2,2.8,4.9,4.3,8.6,4.3c7.2,0,10.9-4.8,10.9-14.3v-15.9c0-2.6-0.1-4.4-0.4-5.6c-0.1-0.3-0.9-0.7-2.2-1
		s-2.3-0.5-2.8-0.5c-0.2,0-0.3-0.2-0.3-0.7c0-0.5,0.1-0.8,0.3-1c0.5,0,1.7,0.1,3.3,0.2c1.7,0.1,3,0.2,4.2,0.2c1.1,0,2.5-0.1,4.2-0.2
		c1.7-0.1,2.7-0.2,3-0.2c0.1,0.3,0.1,0.6,0.1,1C226.4,119.5,226.3,119.7,226.1,119.7z"/>
	<path d="M281.5,53.8c-6.9,11.4-10.3,24.5-10.3,39.3c0,17.1,3.9,32.2,11.8,45.4c7.9,13.1,18.4,19.7,31.7,19.7c0.8,0,1.6,0,2.3-0.1
		V37.5c-2.5-0.6-5.2-0.9-7.9-0.9C297.6,36.6,288.4,42.3,281.5,53.8z"/>
	<path d="M166.1,123.4c-2.3-2-5.1-3-8.2-3c-4,0-7.2,1.8-9.5,5.3c-2.3,3.5-3.5,7.6-3.5,12.2c0,3.4,0.5,6.6,1.7,9.6
		c1.1,3,2.8,5.5,5.1,7.5c2.3,2,5.1,3,8.2,3c2.7,0,5.1-0.9,7.1-2.6c2-1.8,3.5-3.9,4.5-6.5s1.4-5.4,1.4-8.3c0-3.4-0.6-6.6-1.7-9.6
		C170.1,127.9,168.4,125.4,166.1,123.4z"/>
	<path d="M383.7,180.5c-0.2,0-0.9,0.1-2,0.4c-1.1,0.3-2.5,0.5-4.3,0.8c-1.8,0.3-3.8,0.4-6,0.4c-5.7,0-10.4-0.7-14.3-2.1
		c-3.9-1.4-8.7-4-14.4-7.8c-5.7-3.8-10.2-6.6-13.5-8.4c9.3-2.1,18.4-9.2,27.3-21.6c8.9-12.3,13.3-27.2,13.3-44.7
		c0-19.2-5.7-35.5-17-49.2c-10.1-12.1-22-18.8-35.7-20.2v9.2c9.6,2.2,17.5,8.4,23.8,18.7c7.8,13.1,11.8,28.2,11.8,45.3
		c0,14.9-3.4,28.1-10.2,39.5c-6.4,10.6-14.8,16.3-25.3,17.1v18.1c6.8,4.3,13.3,8.1,19.5,11.3c6.8,3.6,13.1,5.3,18.9,5.3
		c12.3,0,22.5-2.4,30.4-7.2v-1C385.9,181.9,385.1,180.5,383.7,180.5z"/>
	<g>
		<path class="st0" d="M315.2,174.4c-7.6-4.9-13.9-8.2-18.9-10c-4.3-1.5-8.7-4-13.3-7.5c-4.5-3.5-9.1-8-13.5-13.5
			c-4.4-5.4-8.1-12.2-10.9-20.3c-2.8-8-4.2-16.7-4.2-25.6c0-18.9,5.7-35.4,16.8-48.8c11.1-13.4,24.8-20.2,40.5-20.2
			c1.5,0,3.1,0.1,4.7,0.2v8.1c-2.4-0.5-4.9-0.8-7.4-0.8c-11.6,0-21,5.8-28,17.4c-6.9,11.5-10.4,24.8-10.4,39.6
			c0,17.1,4,32.5,11.8,45.6c7.9,13.2,18.7,19.9,32.1,19.9c0.6,0,1.2,0,1.8-0.1v16.7C316.1,175,315.6,174.7,315.2,174.4z"/>
		<path d="M311.8,29c1.4,0,2.8,0.1,4.2,0.2v7.1c-2.3-0.4-4.6-0.6-6.9-0.6c-11.8,0-21.3,5.9-28.4,17.6c-6.9,11.5-10.5,24.9-10.5,39.8
			c0,17.2,4,32.6,11.9,45.9c8,13.4,19,20.2,32.6,20.2c0.4,0,0.9,0,1.3,0v15.2c-0.2-0.1-0.3-0.2-0.5-0.3c-7.6-4.9-14-8.3-19-10.1
			c-4.2-1.5-8.6-4-13.1-7.4c-4.5-3.5-9-8-13.4-13.4c-4.4-5.4-8-12.1-10.8-20.1c-2.8-8-4.2-16.5-4.2-25.4c0-18.8,5.6-35.2,16.7-48.5
			C282.7,35.7,296.2,29,311.8,29 M311.8,28c-15.9,0-29.6,6.8-40.9,20.4C259.6,62,254,78.4,254,97.6c0,9,1.4,17.6,4.3,25.8
			c2.8,8.1,6.5,15,11,20.4c4.5,5.5,9,10,13.6,13.5c4.6,3.6,9.1,6.1,13.4,7.6c5,1.8,11.2,5.1,18.8,10c0.7,0.4,1.4,0.9,2.1,1.3V158
			c-0.8,0.1-1.5,0.1-2.3,0.1c-13.3,0-23.9-6.6-31.7-19.7c-7.9-13.1-11.8-28.3-11.8-45.4c0-14.8,3.4-27.9,10.3-39.3
			c6.9-11.4,16.1-17.1,27.5-17.1c2.8,0,5.4,0.3,7.9,0.9v-9.2C315.3,28.1,313.5,28,311.8,28L311.8,28z"/>
	</g>
	<path d="M132.5,149.8c-0.5,1.6-1.1,3-1.9,4.2c-0.8,1.2-1.5,1.9-2.1,2.3c-1.4,0.7-4.1,1.1-8,1.1h-3c-2.8,0-4.2-0.2-4.3-0.6
		c-0.4-1.5-0.6-3.3-0.6-5.6v-23.9c0-2.5,0.2-4.4,0.6-5.9c0.1-0.3,0.7-0.6,1.8-0.9c1.1-0.3,1.9-0.4,2.3-0.4c0.2,0,0.3-0.3,0.3-0.9
		c0-0.4,0-0.7-0.1-1c-0.6,0-1.4,0.1-2.3,0.2c-0.9,0.1-1.8,0.1-2.6,0.2c-0.8,0-1.6,0.1-2.5,0.1c-1.1,0-2.6-0.1-4.3-0.2
		c-1.7-0.1-2.8-0.2-3.4-0.2c-0.2,0.2-0.3,0.5-0.3,1c0,0.6,0.1,0.8,0.3,0.8c0.5,0,1.4,0.1,2.4,0.4c1.1,0.3,1.7,0.6,1.8,0.9
		c0.3,1.1,0.4,3.1,0.4,5.8v24c0,3.5-0.1,5.5-0.4,6c-0.2,0.4-0.8,0.7-1.9,1c-1.1,0.3-1.9,0.4-2.5,0.4c-0.1,0-0.2,0.3-0.2,0.8
		c0,0.6,0.1,0.9,0.2,1l7.7-0.2c2.9,0,6.7,0.1,11.3,0.2c4.7,0.1,8.1,0.2,10.3,0.2c0.1-0.6,0.3-1.4,0.6-2.4c0.3-1,0.6-1.8,0.8-2.6
		c0.3-0.7,0.6-1.7,1-2.9s0.8-2.1,1-2.6c-0.3-0.3-0.8-0.4-1.6-0.4C132.9,149.4,132.6,149.5,132.5,149.8z"/>
	<path d="M158.8,117.7c-5.6,0-10.4,2.1-14.3,6.3c-4,4.2-5.9,9.3-5.9,15.2c0,5.9,2,11,5.9,15.2c4,4.2,8.7,6.3,14.3,6.3
		s10.4-2.1,14.3-6.3c4-4.2,6-9.2,6-15.2c0-5.9-2-11-6-15.2C169.2,119.8,164.4,117.7,158.8,117.7z M171.4,148.8
		c-1,2.6-2.4,4.8-4.5,6.5c-2,1.8-4.4,2.6-7.1,2.6c-3.1,0-5.9-1-8.2-3c-2.3-2-4-4.5-5.1-7.5c-1.1-3-1.7-6.2-1.7-9.6
		c0-4.6,1.2-8.7,3.5-12.2c2.3-3.5,5.5-5.3,9.5-5.3c3.1,0,5.9,1,8.2,3c2.3,2,4,4.5,5.1,7.5c1.1,3,1.7,6.2,1.7,9.6
		C172.9,143.4,172.4,146.2,171.4,148.8z"/>
	<path d="M223.3,118.2c-1.7,0.1-3.1,0.2-4.2,0.2c-1.1,0-2.5-0.1-4.2-0.2c-1.7-0.1-2.8-0.2-3.3-0.2c-0.2,0.2-0.3,0.5-0.3,1
		c0,0.5,0.1,0.7,0.3,0.7c0.5,0,1.5,0.2,2.8,0.5s2.1,0.6,2.2,1c0.3,1.1,0.4,3,0.4,5.6v15.9c0,9.5-3.6,14.3-10.9,14.3
		c-3.7,0-6.6-1.4-8.6-4.3c-2-2.8-3-6.6-3-11.4v-14.2c0-2.5,0.2-4.4,0.6-5.9c0.1-0.3,0.7-0.6,1.8-0.9c1.1-0.3,1.9-0.4,2.3-0.4
		c0.2,0,0.3-0.3,0.3-1c0-0.3,0-0.6-0.1-0.9c-4.2,0.2-6.7,0.3-7.4,0.3c-0.2,0-2.8-0.1-7.6-0.3c-0.2,0.2-0.3,0.5-0.3,1
		c0,0.6,0.1,0.8,0.3,0.8c0.5,0,1.4,0.1,2.4,0.4c1.1,0.3,1.7,0.6,1.8,0.9c0.3,1.1,0.4,3,0.4,5.6v14.4c0,6.6,1.4,11.4,4.1,14.3
		c2.7,3,6.6,4.4,11.6,4.4c5.1,0,9-1.3,11.7-3.8c2.8-2.6,4.1-7.1,4.1-13.7v-15.4c0-2.6,0.2-4.6,0.5-5.9c0.1-0.3,0.8-0.6,2.3-1
		c1.4-0.3,2.3-0.5,2.8-0.5c0.2,0,0.3-0.3,0.3-0.8c0-0.4,0-0.7-0.1-1C226,118,225,118.1,223.3,118.2z"/>
	<path d="M418.8,118.2c-1.7,0.1-3.1,0.2-4.2,0.2c-1.1,0-2.5-0.1-4.2-0.2s-2.8-0.2-3.3-0.2c-0.2,0.2-0.3,0.5-0.3,1s0.1,0.7,0.3,0.7
		c0.5,0,1.5,0.2,2.8,0.5c1.3,0.3,2.1,0.6,2.2,1c0.3,1.1,0.4,3,0.4,5.6v15.9c0,9.5-3.6,14.3-10.9,14.3c-3.7,0-6.6-1.4-8.6-4.3
		c-2-2.8-3-6.6-3-11.4v-14.2c0-2.5,0.2-4.4,0.6-5.9c0.1-0.3,0.7-0.6,1.8-0.9c1.1-0.3,1.9-0.4,2.3-0.4c0.2,0,0.3-0.3,0.3-1
		c0-0.3,0-0.6-0.1-0.9c-4.2,0.2-6.7,0.3-7.4,0.3c-0.2,0-2.8-0.1-7.6-0.3c-0.2,0.2-0.3,0.5-0.3,1c0,0.6,0.1,0.8,0.3,0.8
		c0.5,0,1.4,0.1,2.4,0.4c1.1,0.3,1.7,0.6,1.8,0.9c0.3,1.1,0.4,3,0.4,5.6v14.4c0,6.6,1.4,11.4,4.1,14.3c2.7,3,6.6,4.4,11.6,4.4
		c5.1,0,9-1.3,11.7-3.8c2.8-2.6,4.1-7.1,4.1-13.7v-15.4c0-2.6,0.2-4.6,0.5-5.9c0.1-0.3,0.8-0.6,2.3-1c1.4-0.3,2.3-0.5,2.8-0.5
		c0.2,0,0.3-0.3,0.3-0.8c0-0.4,0-0.7-0.1-1C421.4,118,420.5,118.1,418.8,118.2z"/>
	<path d="M465.2,158.4c-0.5,0-1.3-0.2-2.3-0.6c-1.1-0.4-1.7-0.9-2-1.6c-0.5-1.1-1.1-2.6-1.8-4.6l-12.7-33.5l-0.6-0.2
		c-0.3,0-0.6,0-0.8,0.1c-0.2,0.1-0.4,0.2-0.6,0.4c-0.2,0.2-0.3,0.4-0.5,0.6c-0.1,0.2-0.3,0.4-0.4,0.8c-0.2,0.4-0.3,0.7-0.4,0.9
		c-0.1,0.2-0.2,0.6-0.3,1c-0.1,0.5-0.3,0.8-0.3,1l-11,28.4c-1.1,2.8-2.1,4.8-3,6c-0.3,0.4-0.8,0.7-1.7,0.9c-0.8,0.2-1.5,0.3-2,0.3
		c-0.2,0-0.3,0.3-0.3,0.9c0,0.5,0.1,0.8,0.3,1c0.7,0,1.5-0.1,2.3-0.1c0.8,0,1.5-0.1,2.1-0.1c0.6,0,1.4-0.1,2.2-0.1
		c0.1,0,2.3,0.1,6.5,0.3c0.1-0.2,0.1-0.6,0.1-1.1s-0.1-0.8-0.2-0.8c-0.4,0-1-0.1-1.8-0.3c-0.8-0.2-1.5-0.4-1.8-0.7
		c-0.3-0.3-0.5-0.7-0.5-1.3c0-0.8,0.4-2.3,1.1-4.4l2.7-7l0.3-0.2c3.2-0.2,5.9-0.3,8.1-0.3c1.6,0,3.2,0.1,4.8,0.2
		c0.1,0,0.3,0.1,0.4,0.3l2.6,7.2l0.3,0.7c0.1,0.4,0.3,1,0.4,1.7s0.2,1.4,0.2,1.9c0,0.3,0,0.7-0.1,1c-0.1,0.3-0.6,0.6-1.3,0.8
		c-0.8,0.2-1.4,0.3-1.9,0.3c-0.2,0-0.3,0.3-0.3,0.8c0,0.5,0.1,0.9,0.2,1c4.9-0.2,7.3-0.3,7.4-0.3c0.4,0,2.8,0.1,7,0.3
		c0.1-0.3,0.1-0.5,0.1-0.6C465.4,158.8,465.3,158.4,465.2,158.4z M449.2,141c-2,0.1-3.9,0.2-5.8,0.2c-0.8,0-2.3,0-4.5-0.1
		c-0.1,0-0.1-0.1-0.1-0.3l5.5-14.2l5.1,14L449.2,141z"/>
	<path d="M498.9,157.9c0.3-1,0.6-1.8,0.8-2.6s0.6-1.7,1-2.9c0.4-1.2,0.8-2.1,1-2.6c-0.3-0.3-0.8-0.4-1.6-0.4c-0.5,0-0.8,0.1-0.9,0.4
		c-0.5,1.6-1.1,3-1.9,4.2s-1.5,1.9-2.1,2.3c-1.4,0.7-4.1,1.1-8,1.1h-3c-2.8,0-4.2-0.2-4.3-0.6c-0.4-1.5-0.6-3.3-0.6-5.6v-23.9
		c0-2.5,0.2-4.4,0.6-5.9c0.1-0.3,0.7-0.6,1.8-0.9c1.1-0.3,1.9-0.4,2.3-0.4c0.2,0,0.3-0.3,0.3-0.9c0-0.4,0-0.7-0.1-1
		c-0.6,0-1.4,0.1-2.3,0.2c-0.9,0.1-1.8,0.1-2.6,0.2c-0.8,0-1.6,0.1-2.5,0.1c-1.1,0-2.6-0.1-4.3-0.2c-1.7-0.1-2.8-0.2-3.4-0.2
		c-0.2,0.2-0.3,0.5-0.3,1c0,0.6,0.1,0.8,0.3,0.8c0.5,0,1.4,0.1,2.4,0.4c1.1,0.3,1.7,0.6,1.8,0.9c0.3,1.1,0.4,3.1,0.4,5.8v24
		c0,3.5-0.1,5.5-0.4,6c-0.2,0.4-0.8,0.7-1.9,1c-1.1,0.3-1.9,0.4-2.5,0.4c-0.1,0-0.2,0.3-0.2,0.8c0,0.6,0.1,0.9,0.2,1l7.7-0.2
		c2.9,0,6.7,0.1,11.3,0.2s8.1,0.2,10.3,0.2C498.4,159.7,498.6,158.9,498.9,157.9z"/>
	<path d="M536.9,152.4c0.4-1.2,0.8-2.1,1-2.6c-0.3-0.3-0.8-0.4-1.6-0.4c-0.5,0-0.8,0.1-0.9,0.4c-0.5,1.6-1.1,3-1.9,4.2
		s-1.5,1.9-2.1,2.3c-1.4,0.7-4.1,1.1-8,1.1h-3c-2.8,0-4.2-0.2-4.3-0.6c-0.4-1.5-0.6-3.3-0.6-5.6v-23.9c0-2.5,0.2-4.4,0.6-5.9
		c0.1-0.3,0.7-0.6,1.8-0.9c1.1-0.3,1.9-0.4,2.3-0.4c0.2,0,0.3-0.3,0.3-0.9c0-0.4,0-0.7-0.1-1c-0.6,0-1.4,0.1-2.3,0.2
		c-0.9,0.1-1.8,0.1-2.6,0.2c-0.8,0-1.6,0.1-2.5,0.1c-1.1,0-2.6-0.1-4.3-0.2c-1.7-0.1-2.8-0.2-3.4-0.2c-0.2,0.2-0.3,0.5-0.3,1
		c0,0.6,0.1,0.8,0.3,0.8c0.5,0,1.4,0.1,2.4,0.4c1.1,0.3,1.7,0.6,1.8,0.9c0.3,1.1,0.4,3.1,0.4,5.8v24c0,3.5-0.1,5.5-0.4,6
		c-0.2,0.4-0.8,0.7-1.9,1c-1.1,0.3-1.9,0.4-2.5,0.4c-0.1,0-0.2,0.3-0.2,0.8c0,0.6,0.1,0.9,0.2,1l7.7-0.2c2.9,0,6.7,0.1,11.3,0.2
		s8.1,0.2,10.3,0.2c0.1-0.6,0.3-1.4,0.6-2.4c0.3-1,0.6-1.8,0.8-2.6S536.4,153.6,536.9,152.4z"/>
	<path d="M571,149.8c-0.5,1.6-1.1,3-1.9,4.2s-1.5,1.9-2.1,2.3c-1.4,0.7-4.1,1.1-8,1.1h-3c-2.8,0-4.2-0.2-4.3-0.6
		c-0.4-1.1-0.6-3-0.6-5.8V141c0-0.4,1.5-0.6,4.6-0.6c3.9,0,6.2,0.2,6.7,0.5c0.3,0.2,0.4,0.3,0.5,0.4s0.3,0.4,0.5,1
		c0.2,0.6,0.5,1.4,0.8,2.6c0.1,0.3,0.5,0.5,1,0.5c0.5,0,0.8-0.1,1-0.3v-12c-0.2-0.2-0.6-0.3-1.1-0.3c-0.6,0-0.9,0.1-1,0.4
		c-0.3,1-0.4,1.6-0.4,1.8c0,0.2-0.2,0.6-0.5,1.1c-0.3,0.5-0.5,0.8-0.7,0.8c-0.2,0-0.6,0.1-1.1,0.3c-0.6,0.2-1.2,0.3-1.7,0.3
		s-1.4,0-2.6,0h-3.4c-1.8,0-2.7-0.1-2.7-0.4v-10.2c0-2.5,0.1-4.3,0.3-5.3c0.1-0.5,1.9-0.8,5.6-0.8h4.3c2,0,3.6,0.3,4.7,1
		s2,2.1,2.7,4.5c0,0.3,0.3,0.4,0.9,0.4c0.5,0,0.9-0.1,1.1-0.3c-0.1-0.5-0.4-1.8-0.9-3.8c-0.5-2-0.8-3.6-1-4.9
		c-2.4,0-5.9,0.1-10.6,0.3c-4.7,0.2-8,0.3-9.9,0.3c-2.8,0-5.4,0-7.6-0.1c-0.2,0.2-0.3,0.5-0.3,1.1c0,0.5,0.1,0.8,0.3,0.8
		c0.5,0,1.4,0.1,2.5,0.4c1.1,0.3,1.7,0.6,1.9,1c0.3,1.1,0.4,3,0.4,5.5v24c0,3.5-0.1,5.5-0.4,6c-0.2,0.4-0.9,0.7-1.9,1
		c-1.1,0.3-1.9,0.4-2.4,0.4c-0.1,0-0.2,0.3-0.2,0.8c0,0.6,0.1,0.9,0.2,1l7.7-0.2c3,0,6.8,0,11.4,0.1c4.7,0.1,8.1,0.1,10.2,0.1
		c0.1-0.6,0.3-1.4,0.6-2.4c0.3-1,0.6-1.8,0.8-2.6s0.6-1.7,1-2.9c0.4-1.2,0.8-2.1,1-2.6c-0.3-0.3-0.8-0.4-1.6-0.4
		C571.4,149.4,571.1,149.5,571,149.8z"/>
	<path d="M590.8,158.4c-0.4,0-1.3-0.2-2.6-0.5c-1.3-0.3-2-0.6-2.1-0.9c-0.3-1.1-0.4-3.1-0.4-5.9V124l24.6,34.9
		c0.7,1,1.4,1.5,2.1,1.5c0.6,0,1-0.1,1.2-0.3c-0.1-3.3-0.2-6.3-0.2-8.9v-24.1c0-2.6,0.2-4.6,0.5-5.9c0.1-0.3,0.8-0.6,2.3-1
		c1.4-0.3,2.3-0.5,2.8-0.5c0.2,0,0.3-0.3,0.3-0.8c0-0.4,0-0.7-0.1-1c-0.3,0-1.3,0.1-3,0.2s-3.1,0.2-4.2,0.2c-1.1,0-2.5-0.1-4.2-0.2
		s-2.8-0.2-3.3-0.2c-0.2,0.2-0.3,0.5-0.3,1s0.1,0.7,0.3,0.7c0.5,0,1.5,0.2,2.8,0.5c1.3,0.3,2.1,0.6,2.2,1c0.3,1.1,0.4,3,0.4,5.6
		v19.7c0,1-0.1,1.9-0.2,2.6c-12.8-17.9-20-28.2-21.5-31.1c-1.2,0.1-2.9,0.1-5.1,0.1c-1,0-3.2,0-6.5-0.1c-0.2,0.2-0.3,0.5-0.3,1
		c0,0.5,0.1,0.8,0.3,0.8c0.6,0,1.5,0.1,2.9,0.4c1.3,0.3,2,0.6,2.2,0.9c0.3,1.1,0.4,2.7,0.4,4.8v24.9c0,2.9-0.2,4.9-0.6,6
		c-0.1,0.4-0.9,0.7-2.2,1c-1.3,0.3-2.3,0.5-2.9,0.5c-0.1,0-0.2,0.3-0.2,0.9c0,0.5,0.1,0.8,0.2,1l7.3-0.3c0.6,0,3.1,0.1,7.3,0.3
		c0.1-0.2,0.1-0.6,0.1-1.1S591,158.4,590.8,158.4z"/>
	<path d="M655.7,148.2c0-2.8-1.1-5.3-3.4-7.4c-2.3-2.1-4.3-3.3-5.9-3.6c-0.1-0.1,0-0.3,0.3-0.4c0.6-0.2,1.3-0.6,2.1-1.1
		c0.8-0.5,1.7-1.4,2.7-2.7c1-1.3,1.5-2.7,1.5-4.3s-0.3-2.9-0.9-4.2c-0.6-1.2-1.4-2.3-2.3-3c-0.9-0.8-2-1.4-3.2-1.9
		c-1.2-0.5-2.4-0.9-3.5-1c-1.1-0.2-2.3-0.3-3.4-0.3c-1.1,0-2.3,0-3.7,0s-3.1,0-5.3,0c-2.8,0-5.4,0-7.6-0.1c-0.2,0.2-0.3,0.5-0.3,1.1
		c0,0.5,0.1,0.8,0.3,0.8c0.5,0,1.4,0.1,2.5,0.4c1.1,0.3,1.7,0.6,1.9,1c0.3,1.1,0.4,3,0.4,5.5v24c0,3.5-0.1,5.5-0.4,6
		c-0.2,0.4-0.9,0.7-1.9,1c-1.1,0.3-1.9,0.4-2.4,0.4c-0.1,0-0.2,0.3-0.2,0.8c0,0.6,0.1,0.9,0.2,1l7.7-0.2h8.7c4.9,0,8.8-1.1,11.7-3.2
		S655.7,151.8,655.7,148.2z M633.6,128.4l0.3-6.4c0-0.3,0.1-0.5,0.4-0.6c1.1-0.3,2.6-0.4,4.5-0.4c2.9,0,5,0.8,6.5,2.4
		c1.5,1.6,2.2,3.9,2.2,6.8c0,1.7-0.6,3.1-1.7,4.2c-1.2,1-2.6,1.6-4.3,1.8c-1,0.1-2.2,0.2-3.6,0.2c-2.8,0-4.2-0.1-4.2-0.4V128.4z
		 M648.4,153.4c-0.9,1.2-2.1,2.1-3.5,2.5c-1.4,0.5-2.7,0.8-3.7,1c-1,0.2-2.1,0.3-3.1,0.3c-1.7,0-2.8-0.3-3.4-0.9
		c-0.7-0.5-1-2.4-1-5.6v-9.3c0-0.9,0.1-1.6,0.3-2.1c2.1-0.2,3.6-0.3,4.6-0.3c3.9,0,6.7,1,8.6,2.9c1.8,1.9,2.7,4.2,2.7,7
		C649.7,150.7,649.2,152.2,648.4,153.4z"/>
	<path d="M690.6,149.8c-0.5,1.6-1.1,3-1.9,4.2s-1.5,1.9-2.1,2.3c-1.4,0.7-4.1,1.1-8,1.1h-3c-2.8,0-4.2-0.2-4.3-0.6
		c-0.4-1.1-0.6-3-0.6-5.8V141c0-0.4,1.5-0.6,4.6-0.6c3.9,0,6.2,0.2,6.7,0.5c0.3,0.2,0.4,0.3,0.5,0.4s0.3,0.4,0.5,1
		c0.2,0.6,0.5,1.4,0.8,2.6c0.1,0.3,0.5,0.5,1,0.5c0.5,0,0.8-0.1,1-0.3v-12c-0.2-0.2-0.6-0.3-1.1-0.3c-0.6,0-0.9,0.1-1,0.4
		c-0.3,1-0.4,1.6-0.4,1.8c0,0.2-0.2,0.6-0.5,1.1c-0.3,0.5-0.5,0.8-0.7,0.8c-0.2,0-0.6,0.1-1.1,0.3c-0.6,0.2-1.2,0.3-1.7,0.3
		s-1.4,0-2.6,0h-3.4c-1.8,0-2.7-0.1-2.7-0.4v-10.2c0-2.5,0.1-4.3,0.3-5.3c0.1-0.5,1.9-0.8,5.6-0.8h4.3c2,0,3.6,0.3,4.7,1
		s2,2.1,2.7,4.5c0,0.3,0.3,0.4,0.9,0.4c0.5,0,0.9-0.1,1.1-0.3c-0.1-0.5-0.4-1.8-0.9-3.8c-0.5-2-0.8-3.6-1-4.9
		c-2.4,0-5.9,0.1-10.6,0.3c-4.7,0.2-8,0.3-9.9,0.3c-2.8,0-5.4,0-7.6-0.1c-0.2,0.2-0.3,0.5-0.3,1.1c0,0.5,0.1,0.8,0.3,0.8
		c0.5,0,1.4,0.1,2.5,0.4c1.1,0.3,1.7,0.6,1.9,1c0.3,1.1,0.4,3,0.4,5.5v24c0,3.5-0.1,5.5-0.4,6c-0.2,0.4-0.9,0.7-1.9,1
		c-1.1,0.3-1.9,0.4-2.4,0.4c-0.1,0-0.2,0.3-0.2,0.8c0,0.6,0.1,0.9,0.2,1l7.7-0.2c3,0,6.8,0,11.4,0.1c4.7,0.1,8.1,0.1,10.2,0.1
		c0.1-0.6,0.3-1.4,0.6-2.4c0.3-1,0.6-1.8,0.8-2.6s0.6-1.7,1-2.9c0.4-1.2,0.8-2.1,1-2.6c-0.3-0.3-0.8-0.4-1.6-0.4
		C691,149.4,690.7,149.5,690.6,149.8z"/>
	<path d="M726.9,151.7c-2.8-3-5.2-6.7-7.3-11.2c-0.2-0.3,0-0.5,0.4-0.6c2.3-1.1,4.1-2.6,5.4-4.5c1.3-1.9,2-3.8,2-5.6
		c0-2.1-0.5-3.9-1.4-5.5c-0.9-1.6-2.1-2.8-3.6-3.6c-1.4-0.8-2.9-1.5-4.4-1.9c-1.5-0.4-2.9-0.6-4.4-0.6c-1.2,0-2.7,0-4.4,0.1
		c-1.7,0.1-3.2,0.1-4.5,0.1l-7.6-0.1c-0.2,0.2-0.3,0.5-0.3,1.1c0,0.5,0.1,0.8,0.3,0.8c0.5,0,1.4,0.1,2.5,0.4c1.1,0.3,1.7,0.6,1.9,1
		c0.3,1.1,0.4,3,0.4,5.5v24c0,3.5-0.1,5.5-0.4,6c-0.2,0.4-0.8,0.7-1.9,1c-1.1,0.3-1.9,0.4-2.5,0.4c-0.1,0-0.2,0.3-0.2,0.8
		c0,0.6,0.1,1,0.2,1.1l7.7-0.3c1.3,0,4,0.1,8.3,0.3c0.1-0.3,0.1-0.6,0.1-1c0-0.6-0.1-0.9-0.3-0.9c-0.6,0-1.5-0.2-2.8-0.5
		c-1.3-0.3-2-0.8-2.3-1.3c-0.3-0.8-0.5-2.7-0.5-5.5v-9.3c0-0.3,0.1-0.6,0.3-0.8c0.2-0.2,0.3-0.3,0.5-0.3c0.2,0,0.4,0,0.8,0
		c1.1,0,1.9,0.1,2.3,0.3c0.5,0.2,0.9,0.5,1.3,0.8c0.4,0.3,0.9,0.8,1.4,1.5c0.5,0.7,1,1.3,1.4,1.9c0.4,0.6,1,1.5,1.9,2.8
		c0.9,1.3,1.6,2.4,2.3,3.3c4.4,6.1,9.5,9.1,15.4,9.1c0.7,0,1.2-0.1,1.7-0.2c0.1-0.3,0.2-0.6,0.2-1c0-0.3-0.1-0.6-0.2-0.9
		C734.3,158.3,731,156.1,726.9,151.7z M714.6,137.9H713c-3.7,0-5.5-0.6-5.5-1.8v-7.7c0-2.1,0-3.6,0.1-4.6c0.1-1,0.1-1.6,0.3-1.9
		c0.1-0.3,0.2-0.4,0.4-0.5c1.1-0.3,2.5-0.4,4.4-0.4c5.9,0,8.9,2.9,8.9,8.8c0,2.5-0.8,4.4-2.4,5.9
		C717.6,137.2,716.1,137.9,714.6,137.9z"/>
	<path d="M780.1,141c-4.2,0.2-6.5,0.3-6.9,0.3c-0.1,0-2.9-0.1-8.3-0.3c-0.2,0.2-0.3,0.5-0.3,1c0,0.5,0.1,0.8,0.3,0.8
		c0.7,0,1.6,0.1,2.8,0.4c1.2,0.3,1.9,0.6,2.1,1c0.3,0.9,0.5,2.7,0.5,5.5v0.4l0.1,5.2c0,0.5-0.1,0.8-0.4,1c-1.8,0.9-4.5,1.4-8.3,1.4
		c-4.7,0-8.6-2-11.7-5.9c-3.1-4-4.7-8.3-4.7-13c0-5.1,1.4-9.4,4.3-13c2.8-3.6,6.4-5.4,10.6-5.4c7.5,0,11.8,2.9,12.9,8.7
		c0.1,0.2,0.4,0.3,0.8,0.3c0.9,0,1.3-0.3,1.3-1c0-0.4-0.1-3-0.3-7.9c-7-1.9-12-2.9-15-2.9c-5.8,0-10.8,2.1-14.8,6.4
		c-4,4.3-6,9.4-6,15.5c0,5.7,2,10.6,5.9,14.7c3.9,4.1,8.7,6.2,14.3,6.2c1.1,0,2.1,0,3.1-0.1c1-0.1,1.9-0.1,2.6-0.2
		c0.7-0.1,1.5-0.2,2.3-0.3c0.8-0.2,1.5-0.3,1.9-0.4c0.4-0.1,1-0.2,1.8-0.5c0.7-0.2,1.2-0.4,1.4-0.5c0.2-0.1,0.7-0.3,1.4-0.5
		c0.7-0.3,1.2-0.4,1.2-0.5c1.1-0.4,1.6-0.8,1.6-1.1c0-0.1-0.1-0.5-0.4-1.3c-0.3-0.7-0.4-1.5-0.4-2.2c0-0.1,0-0.6-0.1-1.7
		c-0.1-1-0.1-2-0.1-2.9c0-2.5,0.2-4,0.6-4.3c0.4-0.2,1-0.5,1.9-0.7c0.9-0.3,1.5-0.4,1.7-0.4c0.2,0,0.3-0.3,0.3-1
		C780.3,141.6,780.2,141.3,780.1,141z"/>
	<path d="M458.3,205c-0.5-0.7-1.2-1.4-2.3-2.3c-1-0.9-1.8-1.5-2.3-1.8c-0.5-0.3-1.4-0.9-2.7-1.7c-1.3-0.8-2.1-1.3-2.3-1.4
		c-0.3-0.2-1-0.6-2.2-1.3c-1.1-0.7-1.9-1.2-2.3-1.5c-0.4-0.3-1-0.7-1.8-1.4c-0.8-0.7-1.4-1.3-1.7-1.8c-0.3-0.5-0.6-1.2-0.9-1.9
		c-0.3-0.8-0.5-1.6-0.5-2.4c0-1.9,0.5-3.6,1.6-4.9c1.1-1.3,3-2,5.6-2c2.4,0,4.4,0.9,6.1,2.8c1.7,1.8,2.6,3.7,2.8,5.7
		c0.1,0.4,0.7,0.7,1.7,0.7c0.4,0,0.7-0.2,0.7-0.5c0-4-0.3-7.1-0.8-9.5c-0.8-0.2-1.7-0.4-2.8-0.7c-1-0.3-1.8-0.5-2.4-0.6
		c-0.6-0.1-1.3-0.3-2.1-0.4c-0.9-0.1-1.8-0.2-2.8-0.2c-3.5,0-6.5,1.1-9.1,3.3c-2.6,2.2-3.9,5-3.9,8.4c0,1.1,0.1,2.1,0.4,3.1
		c0.3,1,0.8,1.9,1.5,2.8c0.7,0.9,1.3,1.6,1.9,2.2s1.4,1.3,2.6,2.1c1.2,0.8,2,1.3,2.5,1.6c0.5,0.3,1.4,0.8,2.7,1.6
		c0.4,0.2,1.1,0.6,2.2,1.2c1.1,0.6,1.8,1,2.2,1.3s1,0.7,1.7,1.2c0.7,0.6,1.2,1.1,1.5,1.6c0.3,0.5,0.6,1.1,0.8,1.9
		c0.3,0.8,0.4,1.6,0.4,2.5c0,2.4-0.8,4.3-2.3,5.6c-1.6,1.3-3.4,2-5.6,2c-5.8,0-9.5-3.2-11-9.6c-0.3-0.4-0.9-0.6-1.7-0.6
		c-0.7,0-1.1,0.1-1.1,0.4c0,1.6,0.6,5.1,1.7,10.6c0.5,0.1,1.3,0.3,2.6,0.6c1.2,0.3,2.2,0.5,3,0.7s1.8,0.3,3,0.5
		c1.2,0.2,2.3,0.2,3.4,0.2c3.7,0,7-1.1,9.7-3.4c2.8-2.3,4.2-5.2,4.2-8.7c0-1.1-0.2-2.1-0.6-3.1C459.2,206.5,458.7,205.7,458.3,205z"
		/>
	<path d="M506.9,218.1c-1.4,0.8-2.8,1.3-4.1,1.3c-1.5,0-2.6-0.5-3.6-1.6c-0.9-1.1-1.4-2.5-1.4-4.3v-16.3h8.8
		c0.4-0.9,0.7-1.7,0.7-2.5c0-0.4-0.2-0.6-0.5-0.6c-0.1,0-1.4,0-3.7,0c-2.3,0-4.1,0-5.2,0v-6.6c0-0.2-0.7-0.3-2-0.3
		c0,0-0.2,0.3-0.5,0.9c-0.3,0.5-0.7,1.2-1.2,1.9s-0.9,1.4-1.4,2c-1.5,1.8-2.9,2.9-4.2,3.5c0,0-0.1,0.2-0.1,0.5
		c0,0.9,0.1,1.4,0.3,1.4h3.9v16.9c0,2.7,0.7,4.8,2.2,6.2c1.5,1.5,3.3,2.2,5.5,2.2c1.5,0,2.9-0.3,4.3-1c1.4-0.7,2.4-1.4,3.1-2.1
		c0,0-0.1-0.3-0.3-0.8S507,218,506.9,218.1z"/>
	<path d="M566.4,219l-0.6-0.1c-0.4,0-0.9,0-1.3-0.1c-0.4,0-0.9-0.2-1.3-0.3c-0.4-0.2-0.6-0.4-0.7-0.7c-0.3-1.5-0.5-3.1-0.5-5v-13.3
		c0-1.1,0.1-2.7,0.4-4.8c0-0.2,0-0.5,0-0.8c0-0.4-0.2-0.6-0.3-0.6c-0.2,0-0.3,0.1-0.3,0.1c-1.4,0.4-4.5,1-9.2,1.7
		c-0.3,0-0.4,0.6-0.4,1.7c0,0.1,0.2,0.1,0.6,0.1c0.4,0,1,0.1,1.6,0.3c0.6,0.2,1.2,0.6,1.6,1.1c0.6,0.7,0.9,1.9,0.9,3.6v12.4
		c0,0.8-0.6,1.6-1.8,2.7c-1.2,1-2.5,1.6-3.8,1.6c-2.3,0-4-0.8-5-2.4c-1-1.6-1.5-4.1-1.5-7.5v-9c0-1.2,0.1-2.8,0.4-4.9
		c0-0.2,0-0.5,0-0.8c0-0.4-0.2-0.6-0.3-0.6c-0.2,0-0.3,0.1-0.3,0.1c-1.4,0.4-4.5,1-9.2,1.7c-0.3,0-0.4,0.6-0.4,1.7
		c0,0.1,0.2,0.1,0.6,0.1c0.4,0,1,0.1,1.6,0.3c0.6,0.2,1.2,0.6,1.6,1.1c0.6,0.7,0.9,1.9,0.9,3.6v8.4c0,1.4,0.1,2.7,0.3,4
		c0.2,1.3,0.6,2.6,1.2,3.9c0.6,1.4,1.4,2.4,2.6,3.3c1.2,0.8,2.6,1.2,4.2,1.2c2.9,0,5.8-1.6,8.7-4.7l0.1,0.3v3.4
		c0,0.7,0.2,1.1,0.5,1.1l0.6-0.1c0.4-0.1,0.8-0.3,1.5-0.5c0.6-0.2,1.3-0.4,2-0.5c0.7-0.2,1.5-0.3,2.3-0.5c0.8-0.1,1.6-0.2,2.2-0.3
		c0.1,0,0.3-0.1,0.4-0.4c0.1-0.3,0.2-0.5,0.2-0.6C566.6,219.3,566.5,219,566.4,219z"/>
	<path d="M624.3,219l-0.6-0.1c-0.4,0-0.8,0-1.2-0.1c-0.4,0-0.8-0.2-1.2-0.3c-0.4-0.2-0.6-0.4-0.7-0.7c-0.3-1.2-0.4-2.9-0.4-5v-29.9
		c0-2.4,0.2-4.4,0.7-5.8c0-0.2-0.2-0.5-0.3-0.7c-0.2-0.2-0.4-0.4-0.5-0.4h-0.1l-0.3,0.2c-0.2,0.1-0.6,0.3-1,0.5
		c-0.4,0.2-1,0.4-1.6,0.6c-0.6,0.2-1.5,0.4-2.7,0.7c-1.1,0.2-2.4,0.4-3.7,0.5c-0.3,0-0.4,0.4-0.4,1.1c0,0.5,0.1,0.7,0.4,0.7h0.6
		c2,0,3.2,0.4,3.4,1.1c0.3,1.3,0.4,2.7,0.4,4.3v7.2c0,0.8-0.2,1.2-0.5,1.2c-1.4-0.8-3.1-1.1-5-1.1c-3.8,0-7.2,1.6-10.3,4.9
		c-3,3.3-4.5,7-4.5,11.3c0,3.6,1.2,6.8,3.7,9.4c2.5,2.6,5.6,3.9,9.2,3.9c2.2,0,4.6-0.7,7-2.1c0.2-0.1,0.3,0,0.3,0.3v0.8
		c0,0.8,0.1,1.1,0.4,1.1l0.6-0.1c0.4-0.1,0.9-0.3,1.5-0.4c0.6-0.2,1.3-0.3,2-0.5c0.7-0.2,1.5-0.3,2.3-0.4c0.8-0.1,1.6-0.2,2.2-0.3
		c0.3,0,0.4-0.3,0.4-1C624.5,219.3,624.5,219,624.3,219z M615,215.3c0,1.2-0.4,2.1-1.3,2.8c-0.8,0.7-2,1-3.5,1
		c-3.1,0-5.4-1.2-7.2-3.6c-1.7-2.4-2.6-5.2-2.6-8.4c0-3.1,0.7-5.7,2.2-8c1.5-2.3,3.5-3.5,6-3.5c2.2,0,3.8,0.4,4.8,1.2
		c1,0.8,1.5,1.7,1.5,2.6V215.3z"/>
	<path d="M656.7,185.1c0.6,0.6,1.4,1,2.4,1s1.7-0.3,2.4-1c0.6-0.6,1-1.4,1-2.4s-0.3-1.7-1-2.4c-0.6-0.6-1.4-1-2.4-1s-1.7,0.3-2.4,1
		c-0.6,0.6-1,1.4-1,2.4S656,184.4,656.7,185.1z"/>
	<path d="M666.6,220.4c-0.4,0-1.2-0.1-2.3-0.4c-1.1-0.3-1.6-0.6-1.7-0.9c-0.4-1.4-0.5-3.3-0.5-5.9v-13.7c0-1.4,0.1-3,0.3-4.8
		c0-0.2,0-0.5,0-0.8c0-0.4-0.2-0.6-0.3-0.6c0,0-0.1,0-0.2,0l-0.1,0.1c-1.4,0.4-4.5,1-9.2,1.7c-0.3,0-0.4,0.6-0.4,1.7
		c0,0.1,0.2,0.1,0.6,0.1c0.4,0,1,0.1,1.6,0.3c0.6,0.2,1.2,0.6,1.6,1.1c0.6,0.7,0.9,1.9,0.9,3.6v12.6c0,1.8-0.2,3.4-0.5,4.6
		c-0.1,0.3-0.7,0.6-1.7,0.9c-1,0.3-1.8,0.4-2.4,0.4c-0.2,0-0.3,0.3-0.3,0.8c0,0.6,0.1,0.9,0.3,1.1c4.5-0.2,6.9-0.3,7.2-0.3
		c0.3,0,2.7,0.1,7.1,0.3c0.1-0.2,0.1-0.6,0.1-1.1C666.8,220.6,666.7,220.4,666.6,220.4z"/>
	<path d="M709.6,193.1c-4.1,0-7.5,1.4-10.3,4.3c-2.7,2.8-4.1,6.3-4.1,10.4c0,4.1,1.4,7.6,4.3,10.5c2.8,2.9,6.3,4.3,10.3,4.3
		c4,0,7.4-1.4,10.2-4.3c2.8-2.9,4.2-6.4,4.2-10.5c0-4-1.4-7.5-4.3-10.4C717,194.5,713.6,193.1,709.6,193.1z M716.1,216.6
		c-1.5,2.2-3.4,3.3-5.8,3.3c-2.5,0-4.7-1.3-6.6-3.9c-1.9-2.6-2.8-5.7-2.8-9.3c0-3.1,0.7-5.7,2.2-7.9c1.5-2.1,3.4-3.2,5.7-3.2
		c2.5,0,4.7,1.3,6.6,3.8c1.9,2.5,2.9,5.6,2.9,9.2C718.4,211.8,717.6,214.4,716.1,216.6z"/>
	<path d="M772,210.1c-0.3-0.4-0.8-0.9-1.5-1.4c-0.7-0.5-1.2-0.9-1.6-1.1c-0.4-0.2-1-0.6-1.8-1.1c-0.9-0.5-1.4-0.8-1.6-0.9
		c-0.2-0.1-0.8-0.5-1.7-1c-0.9-0.5-1.5-0.9-1.8-1.1s-0.7-0.5-1.2-1c-0.5-0.5-0.9-1-1-1.5c-0.2-0.5-0.3-1.1-0.3-1.8
		c0-2.6,1.6-3.9,4.8-3.9c1.3,0,2.5,0.6,3.6,1.7c1,1.1,1.7,2.3,1.9,3.5c0,0.3,0.4,0.5,1,0.5c0.6,0,0.9-0.1,0.9-0.3
		c-0.1-2.5-0.4-4.7-0.8-6.8c-0.6-0.1-1.6-0.3-3.1-0.5c-1.5-0.2-2.7-0.4-3.7-0.4c-2.6,0-4.8,0.8-6.7,2.3c-1.9,1.5-2.9,3.5-2.9,5.8
		c0,2.7,1.7,5.1,5.2,7.1c0.5,0.3,1.2,0.7,2.3,1.3c1,0.5,1.8,1,2.4,1.3c0.6,0.3,1.2,0.8,1.8,1.3c0.6,0.5,1.1,1.1,1.4,1.7
		c0.3,0.6,0.4,1.3,0.4,2.1c0,1.5-0.5,2.6-1.4,3.4c-0.9,0.8-2.1,1.2-3.5,1.2c-1.6,0-3.2-0.6-4.5-1.9s-2.2-2.6-2.5-3.9
		c0-0.3-0.4-0.4-1.1-0.4c-0.2,0-0.4,0.1-0.8,0.4c0,0.9,0.1,2.1,0.4,3.6c0.2,1.5,0.5,2.6,0.8,3.3c0.6,0.1,1.4,0.3,2.5,0.5
		s2,0.5,2.8,0.6c0.8,0.1,1.6,0.2,2.6,0.2c2.7,0,5.1-0.9,7.2-2.6c2-1.7,3.1-3.9,3.1-6.5c0-0.7-0.1-1.3-0.4-2
		C772.6,211.1,772.3,210.5,772,210.1z"/>
</g>
<rect x="93" y="97" width="142" height="74"/>
<rect x="99" y="114.8" class="st1" width="191.3" height="50"/>
<text transform="matrix(1 0 0 1 99 158.8027)" class="st0 st2 st3">LOU</text>
</svg>
